<?xml version="1.0" encoding="UTF-8" standalone="no"?>
<!-- Created with Inkscape (http://www.inkscape.org/) -->

<svg
   xmlns:dc="http://purl.org/dc/elements/1.1/"
   xmlns:cc="http://creativecommons.org/ns#"
   xmlns:rdf="http://www.w3.org/1999/02/22-rdf-syntax-ns#"
   xmlns:svg="http://www.w3.org/2000/svg"
   xmlns="http://www.w3.org/2000/svg"
   xmlns:sodipodi="http://sodipodi.sourceforge.net/DTD/sodipodi-0.dtd"
   xmlns:inkscape="http://www.inkscape.org/namespaces/inkscape"
   width="103"
   height="30"
   viewBox="0 0 103 30"
   id="svg2"
   version="1.1"
   inkscape:version="0.91 r13725"
   sodipodi:docname="logo_3.svg">
  <defs
     id="defs4" />
  <sodipodi:namedview
     id="base"
     pagecolor="#ffffff"
     bordercolor="#666666"
     borderopacity="1.0"
     inkscape:pageopacity="0.0"
     inkscape:pageshadow="2"
     inkscape:zoom="11.786486"
     inkscape:cx="39.756785"
     inkscape:cy="4.2857143"
     inkscape:document-units="px"
     inkscape:current-layer="g4189"
     showgrid="false"
     units="px"
     inkscape:window-width="2560"
     inkscape:window-height="1396"
     inkscape:window-x="0"
     inkscape:window-y="0"
     inkscape:window-maximized="1" />
  <metadata
     id="metadata7">
    <rdf:RDF>
      <cc:Work
         rdf:about="">
        <dc:format>image/svg+xml</dc:format>
        <dc:type
           rdf:resource="http://purl.org/dc/dcmitype/StillImage" />
        <dc:title />
      </cc:Work>
    </rdf:RDF>
  </metadata>
  <g
     inkscape:label="Layer 1"
     inkscape:groupmode="layer"
     id="layer1"
     transform="translate(0,-1022.3622)">
    <rect
       style="opacity:1;fill:#f8f8f8;fill-opacity:1;fill-rule:nonzero;stroke:none;stroke-width:1.25;stroke-linecap:round;stroke-linejoin:round;stroke-miterlimit:4;stroke-dasharray:none;stroke-dashoffset:0;stroke-opacity:1"
       id="rect4136"
       width="103"
       height="30"
       x="-103"
       y="-1052.3622"
       transform="scale(-1,-1)" />
    <g
       id="g4189"
       transform="matrix(1.1199907,0,0,1.1199907,-5.3000581,-123.14652)">
      <path
         d="m 11.885009,1042.2227 c 3.212024,0 4.623678,-1.6163 4.623678,-4.0509 0,-2.2913 -1.268443,-3.212 -3.293859,-3.8667 l -1.411654,-0.4705 c -1.47303,-0.491 -1.8822049,-1.0434 -1.8822049,-2.2914 0,-1.2684 0.9001849,-2.005 2.4755089,-2.005 1.493489,0 2.598261,0.3683 3.416611,0.7366 l 0,-1.514 c -0.756974,-0.3887 -1.698076,-0.757 -3.355235,-0.757 -2.8846837,0 -4.3577136,1.5344 -4.3577136,3.7031 0,2.1277 1.1252312,3.1302 2.9665186,3.7439 l 1.432113,0.4706 c 1.595782,0.5524 2.168627,1.1047 2.168627,2.3936 0,1.4526 -0.879726,2.3733 -2.884684,2.3733 -1.452571,0 -2.7823897,-0.3478 -3.8462446,-0.9002 l 0,1.5344 c 0.9206437,0.5114 2.2095446,0.9002 3.9485386,0.9002 z"
         style="font-style:normal;font-variant:normal;font-weight:500;font-stretch:normal;font-size:medium;line-height:125%;font-family:'Apple SD Gothic Neo';-inkscape-font-specification:'Apple SD Gothic Neo, Medium';text-align:start;letter-spacing:0px;word-spacing:0px;writing-mode:lr-tb;text-anchor:start;fill:#566270;fill-opacity:1;stroke:#566270;stroke-width:0.66964842;stroke-linecap:butt;stroke-linejoin:miter;stroke-opacity:1;stroke-miterlimit:4;stroke-dasharray:none"
         id="path4156"
         inkscape:connector-curvature="0" />
      <path
         d="m 21.749963,1042.1613 c 1.227525,0 2.270921,-0.4706 3.10973,-1.0639 l 0.102293,0 0.204588,0.8798 1.47303,0 0,-10.168 -1.759453,0 0,8.1221 c -0.716056,0.3682 -1.575323,0.7365 -2.61872,0.7365 -1.47303,0 -1.902663,-0.5319 -1.902663,-1.7799 l 0,-7.0787 -1.718535,0 0,7.3651 c 0,1.964 1.084313,2.987 3.10973,2.987 z"
         style="font-style:normal;font-variant:normal;font-weight:500;font-stretch:normal;font-size:medium;line-height:125%;font-family:'Apple SD Gothic Neo';-inkscape-font-specification:'Apple SD Gothic Neo, Medium';text-align:start;letter-spacing:0px;word-spacing:0px;writing-mode:lr-tb;text-anchor:start;fill:#566270;fill-opacity:1;stroke:#566270;stroke-width:0.66964842;stroke-linecap:butt;stroke-linejoin:miter;stroke-opacity:1;stroke-miterlimit:4;stroke-dasharray:none"
         id="path4158"
         inkscape:connector-curvature="0" />
      <path
         d="m 29.451403,1041.9772 1.759452,0 0,-10.168 -1.759452,0 0,10.168 z m 0,-12.173 1.779911,0 0,-1.8208 -1.779911,0 0,1.8208 z"
         style="font-style:normal;font-variant:normal;font-weight:500;font-stretch:normal;font-size:medium;line-height:125%;font-family:'Apple SD Gothic Neo';-inkscape-font-specification:'Apple SD Gothic Neo, Medium';text-align:start;letter-spacing:0px;word-spacing:0px;writing-mode:lr-tb;text-anchor:start;fill:#566270;fill-opacity:1;stroke:#566270;stroke-width:0.66964842;stroke-linecap:butt;stroke-linejoin:miter;stroke-opacity:1;stroke-miterlimit:4;stroke-dasharray:none"
         id="path4160"
         inkscape:connector-curvature="0" />
      <path
         d="m 37.35903,1042.0795 c 0.920643,0 1.329818,-0.2046 1.759452,-0.3888 l 0,-1.1866 c -0.409175,0.1023 -0.879726,0.1637 -1.288901,0.1637 -1.14569,0 -1.47303,-0.3683 -1.47303,-1.3298 l 0,-6.0763 2.557344,0 0,-1.4525 -2.557344,0 0,-2.4142 -1.738994,0 0,2.4142 -1.452571,0 0,1.4525 1.452571,0 0,6.3218 c 0,1.8004 1.125231,2.496 2.741473,2.496 z"
         style="font-style:normal;font-variant:normal;font-weight:500;font-stretch:normal;font-size:medium;line-height:125%;font-family:'Apple SD Gothic Neo';-inkscape-font-specification:'Apple SD Gothic Neo, Medium';text-align:start;letter-spacing:0px;word-spacing:0px;writing-mode:lr-tb;text-anchor:start;fill:#566270;fill-opacity:1;stroke:#566270;stroke-width:0.66964842;stroke-linecap:butt;stroke-linejoin:miter;stroke-opacity:1;stroke-miterlimit:4;stroke-dasharray:none"
         id="path4162"
         inkscape:connector-curvature="0" />
      <path
         d="m 40.371858,1041.5227 1.718535,0 1.370736,-3.8667 5.360193,0 1.391195,3.8667 1.882205,0 -4.971476,-13.7483 -1.738994,0 -5.012394,13.7483 z m 5.707991,-11.3342 0.06138,0 2.12771,5.933 -4.275879,0 2.086792,-5.933 z"
         style="font-style:normal;font-variant:normal;font-weight:500;font-stretch:normal;font-size:medium;line-height:125%;font-family:'Apple SD Gothic Neo';-inkscape-font-specification:'Apple SD Gothic Neo, Medium';text-align:start;letter-spacing:0px;word-spacing:0px;writing-mode:lr-tb;text-anchor:start;fill:#55ccc3;fill-opacity:1;stroke:#55ccc3;stroke-width:0.66964841;stroke-linecap:butt;stroke-linejoin:miter;stroke-miterlimit:4;stroke-dasharray:none;stroke-opacity:1"
         id="path4164"
         inkscape:connector-curvature="0" />
      <path
         d="m 57.129532,1042.2227 c 3.355235,0 5.094229,-1.9845 5.094229,-5.3602 l 0,-0.3069 c 0,-3.7849 -2.045875,-4.951 -3.948539,-4.951 -1.350277,0 -2.270921,0.3478 -3.048353,0.8183 l -0.102294,0 0,-5.0942 -1.738994,0 0,14.362 c 0.859268,0.3069 2.577803,0.532 3.743951,0.532 z m 0.122753,-1.4731 c -1.022938,0 -1.698076,-0.1636 -2.12771,-0.3273 l 0,-6.7514 c 0.470551,-0.2046 1.391195,-0.5728 2.332297,-0.5728 2.045875,0 2.986978,0.9001 2.986978,3.5802 l 0,0.4501 c 0,2.8438 -1.534406,3.6212 -3.191565,3.6212 z"
         style="font-style:normal;font-variant:normal;font-weight:500;font-stretch:normal;font-size:medium;line-height:125%;font-family:'Apple SD Gothic Neo';-inkscape-font-specification:'Apple SD Gothic Neo, Medium';text-align:start;letter-spacing:0px;word-spacing:0px;writing-mode:lr-tb;text-anchor:start;fill:#566270;fill-opacity:1;stroke:#566270;stroke-width:0.66964842;stroke-linecap:butt;stroke-linejoin:miter;stroke-opacity:1;stroke-miterlimit:4;stroke-dasharray:none"
         id="path4166"
         inkscape:connector-curvature="0" />
      <path
         d="m 64.455044,1041.9772 1.759453,0 0,-10.168 -1.759453,0 0,10.168 z m 0,-12.173 1.779911,0 0,-1.8208 -1.779911,0 0,1.8208 z"
         style="font-style:normal;font-variant:normal;font-weight:500;font-stretch:normal;font-size:medium;line-height:125%;font-family:'Apple SD Gothic Neo';-inkscape-font-specification:'Apple SD Gothic Neo, Medium';text-align:start;letter-spacing:0px;word-spacing:0px;writing-mode:lr-tb;text-anchor:start;fill:#566270;fill-opacity:1;stroke:#566270;stroke-width:0.66964842;stroke-linecap:butt;stroke-linejoin:miter;stroke-opacity:1;stroke-miterlimit:4;stroke-dasharray:none"
         id="path4168"
         inkscape:connector-curvature="0" />
      <path
         d="m 69.130188,1041.9772 1.759453,0 0,-14.6485 -1.759453,0 0,14.6485 z"
         style="font-style:normal;font-variant:normal;font-weight:500;font-stretch:normal;font-size:medium;line-height:125%;font-family:'Apple SD Gothic Neo';-inkscape-font-specification:'Apple SD Gothic Neo, Medium';text-align:start;letter-spacing:0px;word-spacing:0px;writing-mode:lr-tb;text-anchor:start;fill:#566270;fill-opacity:1;stroke:#566270;stroke-width:0.66964842;stroke-linecap:butt;stroke-linejoin:miter;stroke-opacity:1;stroke-miterlimit:4;stroke-dasharray:none"
         id="path4170"
         inkscape:connector-curvature="0" />
      <path
         d="m 73.765377,1041.9772 1.759453,0 0,-10.168 -1.759453,0 0,10.168 z m 0,-12.173 1.779912,0 0,-1.8208 -1.779912,0 0,1.8208 z"
         style="font-style:normal;font-variant:normal;font-weight:500;font-stretch:normal;font-size:medium;line-height:125%;font-family:'Apple SD Gothic Neo';-inkscape-font-specification:'Apple SD Gothic Neo, Medium';text-align:start;letter-spacing:0px;word-spacing:0px;writing-mode:lr-tb;text-anchor:start;fill:#566270;fill-opacity:1;stroke:#566270;stroke-width:0.66964842;stroke-linecap:butt;stroke-linejoin:miter;stroke-opacity:1;stroke-miterlimit:4;stroke-dasharray:none"
         id="path4172"
         inkscape:connector-curvature="0" />
      <path
         d="m 81.673,1042.0795 c 0.920644,0 1.329819,-0.2046 1.759453,-0.3888 l 0,-1.1866 c -0.409175,0.1023 -0.879727,0.1637 -1.288902,0.1637 -1.14569,0 -1.47303,-0.3683 -1.47303,-1.3298 l 0,-6.0763 2.557344,0 0,-1.4525 -2.557344,0 0,-2.4142 -1.738993,0 0,2.4142 -1.452572,0 0,1.4525 1.452572,0 0,6.3218 c 0,1.8004 1.125231,2.496 2.741472,2.496 z"
         style="font-style:normal;font-variant:normal;font-weight:500;font-stretch:normal;font-size:medium;line-height:125%;font-family:'Apple SD Gothic Neo';-inkscape-font-specification:'Apple SD Gothic Neo, Medium';text-align:start;letter-spacing:0px;word-spacing:0px;writing-mode:lr-tb;text-anchor:start;fill:#566270;fill-opacity:1;stroke:#566270;stroke-width:0.66964842;stroke-linecap:butt;stroke-linejoin:miter;stroke-opacity:1;stroke-miterlimit:4;stroke-dasharray:none"
         id="path4174"
         inkscape:connector-curvature="0" />
      <path
         d="m 86.08698,1045.0255 c 1.698076,0 2.598261,-0.1841 3.293858,-2.1277 l 4.112209,-11.0886 -1.698076,0 -2.639179,7.2014 -0.08184,0 -2.864225,-7.2014 -1.882205,0 3.907621,9.5133 -0.470551,1.3298 c -0.306881,0.7365 -1.063855,0.9411 -2.004957,0.9411 -0.368258,0 -0.736515,-0.041 -0.98202,-0.082 l 0,1.2275 c 0.286422,0.1432 0.81835,0.2864 1.30936,0.2864 z"
         style="font-style:normal;font-variant:normal;font-weight:500;font-stretch:normal;font-size:medium;line-height:125%;font-family:'Apple SD Gothic Neo';-inkscape-font-specification:'Apple SD Gothic Neo, Medium';text-align:start;letter-spacing:0px;word-spacing:0px;writing-mode:lr-tb;text-anchor:start;fill:#566270;fill-opacity:1;stroke:#566270;stroke-width:0.66964842;stroke-linecap:butt;stroke-linejoin:miter;stroke-opacity:1;stroke-miterlimit:4;stroke-dasharray:none"
         id="path4176"
         inkscape:connector-curvature="0" />
      <text
         xml:space="preserve"
         style="font-style:normal;font-variant:normal;font-weight:800;font-stretch:normal;font-size:3.44853091px;line-height:125%;font-family:'Hiragino Kaku Gothic Std';-inkscape-font-specification:'Hiragino Kaku Gothic Std, Ultra-Bold';text-align:start;letter-spacing:0px;word-spacing:0px;writing-mode:lr-tb;text-anchor:start;fill:#55ccc3;fill-opacity:1;stroke:none;stroke-width:1px;stroke-linecap:butt;stroke-linejoin:miter;stroke-opacity:1;"
         x="88.951202"
         y="1027.7545"
         id="text4146"
         sodipodi:linespacing="125%"><tspan
           sodipodi:role="line"
           id="tspan4148"
           x="88.951202"
           y="1027.7545">0.9</tspan></text>
    </g>
  </g>
</svg>
